<svg width="100" height="50" viewBox="0 0 100 50" xmlns="http://www.w3.org/2000/svg">
  <defs>
    <linearGradient id="grassGradient" x1="0%" y1="0%" x2="0%" y2="100%">
      <stop offset="0%" style="stop-color:#7CB342;stop-opacity:1" />
      <stop offset="100%" style="stop-color:#4CAF50;stop-opacity:1" />
    </linearGradient>
  </defs>
  
  <!-- Grass blades -->
  <path d="M0,50 Q5,30 10,50 Q15,25 20,50 Q25,35 30,50 Q35,20 40,50 Q45,30 50,50 Q55,25 60,50 Q65,35 70,50 Q75,20 80,50 Q85,30 90,50 Q95,25 100,50 L100,50 L0,50 Z" 
        fill="url(#grassGradient)" />
  
  <!-- Additional grass details -->
  <path d="M2,50 Q7,35 12,50 M18,50 Q23,30 28,50 M32,50 Q37,25 42,50 M48,50 Q53,30 58,50 M62,50 Q67,25 72,50 M78,50 Q83,35 88,50 M92,50 Q97,30 102,50" 
        stroke="#388E3C" stroke-width="1" fill="none" opacity="0.7"/>
</svg>
